<svg width="199" height="100" viewBox="0 0 199 100" fill="none" xmlns="http://www.w3.org/2000/svg">
<path d="M24.1773 79.2916H26.1987C26.5427 79.2916 26.6707 79.0342 26.456 78.7756L13.6853 63.6396C13.556 63.4676 13.5133 63.2102 13.6853 63.0382L26.456 49.1489C26.6707 48.8902 26.5427 48.6329 26.1987 48.6329H24.092C23.876 48.6329 23.748 48.7196 23.576 48.8902L8.00933 65.7462C7.75067 66.0476 7.49333 65.9182 7.49333 65.5316V49.0622C7.49333 48.8049 7.32133 48.6329 7.064 48.6329H5.42933C5.172 48.6329 5 48.8049 5 49.0622V78.8622C5 79.1196 5.172 79.2916 5.42933 79.2916H7.064C7.32133 79.2916 7.49333 79.1196 7.49333 78.8622V69.9609C7.49333 69.7462 7.49333 69.6596 7.708 69.4449L11.492 65.4022C11.664 65.2302 11.8787 65.1449 12.0947 65.4022L23.6187 79.0342C23.7907 79.2489 23.9627 79.2916 24.1773 79.2916ZM45.892 48.5036C37.0347 48.5036 31.1 55.0836 31.1 63.9409C31.1 72.7982 37.0347 79.4209 45.892 79.4209C54.7507 79.4209 60.5987 72.7982 60.5987 63.9409C60.5987 55.0836 54.7507 48.5036 45.892 48.5036ZM45.892 50.8262C53.2453 50.8262 58.1467 56.2436 58.1467 63.9409C58.1467 71.6382 53.2453 77.0982 45.892 77.0982C38.496 77.0982 33.5933 71.6382 33.5933 63.9409C33.5933 56.2436 38.496 50.8262 45.892 50.8262ZM85.796 76.9702H71.9067C71.6493 76.9702 71.4773 76.7982 71.4773 76.5396V66.0049C71.4773 65.7462 71.6493 65.5742 71.9067 65.5742H81.54C81.7973 65.5742 81.9693 65.4022 81.9693 65.1449V63.6396C81.9693 63.3822 81.7973 63.2102 81.54 63.2102H71.9067C71.6493 63.2102 71.4773 63.0382 71.4773 62.7796V51.3849C71.4773 51.1276 71.6493 50.9542 71.9067 50.9542H85.3667C85.624 50.9542 85.796 50.7822 85.796 50.5249V49.0622C85.796 48.8049 85.624 48.6329 85.3667 48.6329H69.4133C69.156 48.6329 68.984 48.8049 68.984 49.0622V78.8622C68.984 79.1196 69.156 79.2916 69.4133 79.2916H85.796C86.0547 79.2916 86.2267 79.1196 86.2267 78.8622V77.3996C86.2267 77.1422 86.0547 76.9702 85.796 76.9702ZM95.0413 79.2916H96.676C96.9333 79.2916 97.1053 79.1196 97.1053 78.8622V68.8422C97.1053 68.5849 97.2773 68.4129 97.5347 68.4129H107.468C107.684 68.4129 107.899 68.4982 107.984 68.7142L113.231 78.9902C113.36 79.2062 113.532 79.2916 113.747 79.2916H115.509C115.811 79.2916 115.983 79.0769 115.811 78.7756L110.349 68.0689C110.22 67.8542 110.264 67.5529 110.479 67.4662C113.144 66.1769 116.068 63.5102 116.068 58.5222C116.068 52.2876 111.812 48.6329 105.663 48.6329H95.0413C94.784 48.6329 94.612 48.8049 94.612 49.0622V78.8622C94.612 79.1196 94.784 79.2916 95.0413 79.2916ZM97.5347 66.0902C97.2773 66.0902 97.1053 65.9182 97.1053 65.6609V51.3849C97.1053 51.1276 97.2773 50.9542 97.5347 50.9542H105.533C109.791 50.9542 113.617 52.9756 113.617 58.5222C113.617 63.9836 109.103 66.0902 106.608 66.0902H97.5347ZM126.991 78.8622V49.0622C126.991 48.8049 126.819 48.6329 126.561 48.6329H124.927C124.669 48.6329 124.497 48.8049 124.497 49.0622V78.8622C124.497 79.1196 124.669 79.2916 124.927 79.2916H126.561C126.819 79.2916 126.991 79.1196 126.991 78.8622ZM160.015 71.6382C159.327 73.4009 155.585 77.0982 150.468 77.0982C142.901 77.0982 138.299 71.0356 138.299 63.8982C138.299 56.8036 142.901 50.7822 150.468 50.7822C155.585 50.7822 159.327 54.4809 160.015 56.2436C160.143 56.5449 160.359 56.4156 160.66 56.3729L162.207 56.1582C162.508 56.1142 162.423 55.8142 162.336 55.5996C160.96 52.1596 156.231 48.4609 150.512 48.4609C141.267 48.4609 135.805 55.8142 135.805 63.8982C135.805 72.0249 141.267 79.4209 150.512 79.4209C156.231 79.4209 160.96 75.7222 162.336 72.2822C162.423 72.0676 162.465 71.7662 162.207 71.7236L160.66 71.5089C160.444 71.4662 160.143 71.3369 160.015 71.6382ZM191.147 49.0622V63.0809C191.147 63.3382 190.975 63.5102 190.717 63.5102H174.204C173.947 63.5102 173.775 63.3382 173.775 63.0809V49.0622C173.775 48.8049 173.603 48.6329 173.344 48.6329H171.711C171.452 48.6329 171.28 48.8049 171.28 49.0622V78.8622C171.28 79.1196 171.452 79.2916 171.711 79.2916H173.344C173.603 79.2916 173.775 79.1196 173.775 78.8622V66.2622C173.775 66.0049 173.947 65.8329 174.204 65.8329H190.717C190.975 65.8329 191.147 66.0049 191.147 66.2622V78.8622C191.147 79.1196 191.319 79.2916 191.576 79.2916H193.211C193.468 79.2916 193.64 79.1196 193.64 78.8622V49.0622C193.64 48.8049 193.468 48.6329 193.211 48.6329H191.576C191.319 48.6329 191.147 48.8049 191.147 49.0622" fill="#292929"/>
<path d="M9.57733 99C12.3067 99 14.1547 96.9653 14.1547 94.4733C14.1547 91.9813 12.3067 89.9627 9.57733 89.9627C6.848 89.9627 5 91.9813 5 94.4733C5 96.9653 6.848 99 9.57733 99ZM9.57733 91.0147C11.6453 91.0147 12.9173 92.5747 12.9173 94.4733C12.9173 96.372 11.6453 97.9493 9.57733 97.9493C7.492 97.9493 6.25467 96.372 6.25467 94.4733C6.25467 92.5747 7.492 91.0147 9.57733 91.0147V91.0147ZM29.2787 90.3707C29.0253 90.2173 28.4147 89.9627 27.668 89.9627C26.8373 89.9627 25.8373 90.32 25.1253 91.252C25.0573 91.3533 24.972 91.32 24.972 91.2013V90.1493C24.972 90.0653 24.9213 90.0147 24.8373 90.0147H23.8533C23.7693 90.0147 23.7173 90.0653 23.7173 90.1493V98.8133C23.7173 98.8987 23.7693 98.9493 23.8533 98.9493H24.8373C24.9213 98.9493 24.972 98.8987 24.972 98.8133V93.8453C24.972 91.9467 26.3453 91.2013 27.5333 91.2013C28.2613 91.2013 28.7027 91.404 28.9733 91.5747C29.0413 91.608 29.1267 91.5907 29.1427 91.4893L29.364 90.5573C29.3813 90.4893 29.364 90.4213 29.2787 90.3707V90.3707ZM43.368 98.5253L43.2493 97.9147C43.232 97.8133 43.1813 97.8133 43.08 97.8467C42.8093 97.932 42.6227 97.9493 42.3173 97.9493C41.4187 97.9493 41.384 97.1187 41.384 95.2707V91.2013C41.384 91.116 41.436 91.0653 41.52 91.0653H43.164C43.2493 91.0653 43.3 91.0147 43.3 90.9293V90.1493C43.3 90.0653 43.2493 90.0147 43.164 90.0147H41.52C41.436 90.0147 41.384 89.9627 41.384 89.8787V87.8267C41.384 87.7427 41.3333 87.6747 41.2493 87.692L40.2653 87.8107C40.1813 87.8267 40.1467 87.8773 40.1467 87.9627V89.8787C40.1467 89.9627 40.096 90.0147 40.012 90.0147H39.1293C39.0453 90.0147 38.9933 90.0653 38.9933 90.1493V90.9293C38.9933 91.0147 39.0453 91.0653 39.1293 91.0653H40.012C40.096 91.0653 40.1467 91.116 40.1467 91.2013V95.2707C40.1467 97.4227 40.1293 99 41.8933 99C42.52 99 43.0467 98.864 43.3173 98.6947C43.368 98.6613 43.3853 98.5933 43.368 98.5253ZM53.2533 98.9493H54.236C54.3213 98.9493 54.372 98.8987 54.372 98.8133V93.032C54.7627 91.828 56.1187 91.0147 57.3733 91.0147C59.0013 91.0147 59.8827 91.9813 59.8827 94.2187V98.8133C59.8827 98.8987 59.9333 98.9493 60.0187 98.9493H60.984C61.0693 98.9493 61.12 98.8987 61.12 98.8133V94.1173C61.12 91.116 59.6453 89.9627 57.6613 89.9627C56.2547 89.9627 55.0507 90.7773 54.5253 91.456C54.44 91.5573 54.372 91.5227 54.372 91.404V86.3187C54.372 86.2333 54.3213 86.1827 54.236 86.1827H53.2533C53.168 86.1827 53.1173 86.2333 53.1173 86.3187V98.8133C53.1173 98.8987 53.168 98.9493 53.2533 98.9493V98.9493ZM75.2773 99C78.0067 99 79.8547 96.9653 79.8547 94.4733C79.8547 91.9813 78.0067 89.9627 75.2773 89.9627C72.548 89.9627 70.7 91.9813 70.7 94.4733C70.7 96.9653 72.548 99 75.2773 99ZM75.2773 91.0147C77.3453 91.0147 78.6173 92.5747 78.6173 94.4733C78.6173 96.372 77.3453 97.9493 75.2773 97.9493C73.192 97.9493 71.9547 96.372 71.9547 94.4733C71.9547 92.5747 73.192 91.0147 75.2773 91.0147ZM93.3347 99C94.6067 99 95.624 98.3213 96.1147 97.6773C96.1827 97.576 96.268 97.6093 96.268 97.728V98.8133C96.268 98.8987 96.3187 98.9493 96.4027 98.9493H97.3693C97.4547 98.9493 97.5053 98.8987 97.5053 98.8133V86.3013C97.5053 86.2333 97.4547 86.1827 97.3867 86.1827H96.3867C96.3187 86.1827 96.268 86.2333 96.268 86.3013V91.2347C96.268 91.3533 96.1827 91.388 96.1147 91.2853C95.624 90.6413 94.6067 89.9627 93.3347 89.9627C90.656 89.9627 89.4173 92.2347 89.4173 94.4907C89.4173 96.7453 90.656 99 93.3347 99ZM93.64 91.0147C94.6907 91.0147 95.7253 91.5907 96.268 92.608V96.3547C95.7253 97.372 94.6907 97.9493 93.64 97.9493C91.656 97.9493 90.656 96.372 90.656 94.4907C90.656 92.608 91.656 91.0147 93.64 91.0147ZM111.645 99C114.376 99 116.223 96.9653 116.223 94.4733C116.223 91.9813 114.376 89.9627 111.645 89.9627C108.916 89.9627 107.068 91.9813 107.068 94.4733C107.068 96.9653 108.916 99 111.645 99ZM111.645 91.0147C113.713 91.0147 114.985 92.5747 114.985 94.4733C114.985 96.372 113.713 97.9493 111.645 97.9493C109.56 97.9493 108.323 96.372 108.323 94.4733C108.323 92.5747 109.56 91.0147 111.645 91.0147ZM125.921 98.9493H126.905C126.989 98.9493 127.04 98.8987 127.04 98.8133V93.032C127.481 91.828 128.787 91.0147 130.041 91.0147C131.685 91.0147 132.669 91.964 132.669 94.2187V98.8133C132.669 98.8987 132.72 98.9493 132.805 98.9493H133.772C133.856 98.9493 133.907 98.8987 133.907 98.8133V94.0493C133.907 90.896 132.263 89.9627 130.38 89.9627C128.973 89.9627 127.719 90.7773 127.193 91.456C127.108 91.5573 127.04 91.5227 127.04 91.404V90.1493C127.04 90.0653 126.989 90.0147 126.905 90.0147H125.921C125.837 90.0147 125.785 90.0653 125.785 90.1493V98.8133C125.785 98.8987 125.837 98.9493 125.921 98.9493V98.9493ZM148.013 98.5253L147.895 97.9147C147.877 97.8133 147.827 97.8133 147.725 97.8467C147.455 97.932 147.268 97.9493 146.963 97.9493C146.064 97.9493 146.029 97.1187 146.029 95.2707V91.2013C146.029 91.116 146.081 91.0653 146.165 91.0653H147.811C147.895 91.0653 147.945 91.0147 147.945 90.9293V90.1493C147.945 90.0653 147.895 90.0147 147.811 90.0147H146.165C146.081 90.0147 146.029 89.9627 146.029 89.8787V87.8267C146.029 87.7427 145.979 87.6747 145.895 87.692L144.911 87.8107C144.827 87.8267 144.792 87.8773 144.792 87.9627V89.8787C144.792 89.9627 144.741 90.0147 144.657 90.0147H143.775C143.691 90.0147 143.639 90.0653 143.639 90.1493V90.9293C143.639 91.0147 143.691 91.0653 143.775 91.0653H144.657C144.741 91.0653 144.792 91.116 144.792 91.2013V95.2707C144.792 97.4227 144.775 99 146.539 99C147.167 99 147.692 98.864 147.963 98.6947C148.013 98.6613 148.031 98.5933 148.013 98.5253V98.5253ZM158.611 88.0133C159.085 88.0133 159.457 87.624 159.457 87.1653C159.457 86.708 159.085 86.3187 158.611 86.3187C158.152 86.3187 157.763 86.708 157.763 87.1653C157.763 87.624 158.152 88.0133 158.611 88.0133ZM157.983 90.1493V98.8133C157.983 98.8987 158.033 98.9493 158.119 98.9493H159.085C159.169 98.9493 159.22 98.8987 159.22 98.8133V90.1493C159.22 90.0653 159.169 90.0147 159.085 90.0147H158.119C158.033 90.0147 157.983 90.0653 157.983 90.1493ZM176.871 96.7787L175.956 96.6267C175.871 96.592 175.837 96.592 175.768 96.6773C175.531 97.1187 174.82 97.9493 173.429 97.9493C171.463 97.9493 170.343 96.3213 170.343 94.4733C170.343 92.6253 171.463 91.0147 173.429 91.0147C174.82 91.0147 175.515 91.812 175.768 92.2853C175.803 92.3373 175.871 92.3707 175.956 92.3373L176.871 92.184C176.956 92.1507 176.939 92.0653 176.904 91.9973C176.583 91.1667 175.429 89.9627 173.412 89.9627C170.852 89.9627 169.088 91.9813 169.088 94.4733C169.088 96.9827 170.852 99 173.412 99C175.429 99 176.565 97.78 176.904 96.9653C176.939 96.8973 176.956 96.8133 176.871 96.7787V96.7787ZM190.401 99C192.452 99 193.639 98.068 193.639 96.592C193.639 94.9987 192.265 94.4053 190.231 93.8293C188.349 93.2867 188.061 92.948 188.061 92.252C188.061 91.5907 188.723 90.9973 189.943 90.9973C191.265 90.9973 192.045 91.5227 192.045 92.6587C192.045 92.7947 192.096 92.8453 192.215 92.8293L193.097 92.6933C193.216 92.676 193.232 92.6427 193.232 92.524C193.232 91.0147 192.028 89.9467 189.909 89.9467C188.011 89.9467 186.824 90.9467 186.824 92.2013C186.824 93.456 187.637 94.1347 189.604 94.676C191.553 95.2187 192.401 95.524 192.401 96.508C192.401 97.3387 191.74 97.9493 190.349 97.9493C188.688 97.9493 187.655 97.1347 187.655 95.864C187.655 95.728 187.587 95.6773 187.468 95.7107L186.637 95.8293C186.484 95.864 186.468 95.9147 186.468 96.016C186.468 98.0507 188.281 99 190.401 99" fill="#292929"/>
<path d="M64.1593 5.40632C64.1099 5.23165 64.2126 5.05032 64.3859 5.00098C64.5606 4.95298 64.7419 5.05432 64.7913 5.22898C65.1299 6.42365 65.6659 7.89032 66.2699 9.34498C66.9073 10.8836 67.6219 12.4076 68.2579 13.5823L68.4406 13.9143L68.4393 13.9116C68.2846 13.385 68.1393 12.849 68.0059 12.305V12.3036C67.6339 10.7876 67.3166 9.19698 67.0779 7.60631C66.8499 6.09165 66.6886 4.56498 66.6166 3.09032C66.6073 2.91032 66.7473 2.75565 66.9286 2.74765C67.1086 2.73965 67.2619 2.87965 67.2713 3.05965C67.3419 4.49965 67.5006 6.00498 67.7273 7.50898C67.9646 9.08898 68.2779 10.6596 68.6419 12.149C68.7739 12.6876 68.9179 13.2143 69.0686 13.7263C69.2206 14.2463 69.3846 14.753 69.5553 15.2463C69.6993 15.6583 69.8486 16.0636 70.0059 16.461C74.1259 22.5463 80.0473 27.1076 86.5166 30.0356C90.0806 31.649 93.8086 32.7663 97.4926 33.373C101.134 33.221 104.789 32.5116 108.253 31.3063C116.081 28.5836 122.926 23.3396 126.426 16.3303C126.254 16.5236 126.081 16.7143 125.903 16.9023C123.653 19.297 120.943 21.3583 117.939 23.0436C117.225 23.8396 116.451 24.585 115.629 25.2756C112.293 28.0796 108.131 29.997 103.67 30.7463C99.2086 31.4943 94.4419 31.0756 89.8953 29.209C87.7499 28.3276 85.6539 27.1236 83.6619 25.569C80.7499 24.3116 78.0606 22.6036 75.7259 20.4076C73.6766 18.481 71.8993 16.1783 70.4846 13.477L70.4713 13.4543C70.2179 12.9676 69.9713 12.4583 69.7339 11.9276C69.5033 11.413 69.2846 10.885 69.0819 10.3463C69.0179 10.177 69.1033 9.98765 69.2726 9.92498C69.4419 9.86098 69.6313 9.94631 69.6953 10.1156C69.8953 10.645 70.1086 11.1596 70.3326 11.6596C70.5566 12.1596 70.7979 12.6583 71.0553 13.1503L71.0646 13.1716C72.4433 15.8063 74.1766 18.0503 76.1753 19.9303C77.8499 21.505 79.7126 22.8223 81.7113 23.8983C80.8299 23.073 79.9739 22.1716 79.1486 21.1903C78.1499 20.001 77.1713 18.649 76.2566 17.1903C74.9206 16.1076 73.6939 14.8703 72.6153 13.461C72.2286 12.957 71.8579 12.4263 71.5059 11.8703C71.1566 11.3156 70.8273 10.7383 70.5233 10.141V10.1397L70.4766 10.049L70.4686 10.0343C70.1273 9.37298 68.8313 6.86232 68.3459 4.61832C68.3086 4.44232 68.4206 4.26632 68.5979 4.22898C68.7753 4.19032 68.9499 4.30232 68.9886 4.47965C69.4566 6.64365 70.7193 9.09032 71.0513 9.73432L71.0579 9.74898L71.1073 9.84365V9.84498H71.1086C71.4046 10.4276 71.7233 10.9876 72.0606 11.521C72.3979 12.053 72.7579 12.5676 73.1366 13.0623C73.7633 13.881 74.4419 14.6383 75.1633 15.341C74.4953 14.1423 73.8753 12.893 73.3246 11.6196C71.9206 8.36631 70.9619 4.94632 70.7833 1.80365C70.7739 1.62365 70.9126 1.46898 71.0926 1.45965C71.2739 1.44898 71.4286 1.58765 71.4379 1.76898C71.6113 4.82632 72.5513 8.16898 73.9286 11.3596C74.7406 13.2396 75.7046 15.0663 76.7526 16.7476C77.8233 17.6076 78.9673 18.369 80.1619 19.0383C79.2273 18.013 78.3939 16.8996 77.6579 15.7116C75.8766 12.8383 74.6619 9.53698 73.9539 6.03965C73.9179 5.86232 74.0326 5.69032 74.2099 5.65432C74.3873 5.61965 74.5606 5.73432 74.5953 5.91165C75.2886 9.33431 76.4766 12.5623 78.2153 15.3676C79.2859 17.0943 80.5673 18.661 82.0726 20.0156C82.6486 20.2836 83.2339 20.533 83.8273 20.765C85.7659 21.525 87.7779 22.0983 89.7979 22.521C89.1646 22.2276 88.5406 21.9116 87.9286 21.573C84.1033 19.4556 80.7126 16.4343 78.2699 12.401C77.6353 11.3516 77.0299 10.137 76.4873 8.89298C75.8579 7.45298 75.3059 5.96498 74.8806 4.64632C74.8259 4.47432 74.9206 4.29032 75.0926 4.23432C75.2646 4.17965 75.4486 4.27432 75.5046 4.44632C75.9219 5.74098 76.4659 7.20632 77.0886 8.63032C77.6233 9.85698 78.2153 11.0476 78.8299 12.0623C81.2086 15.9916 84.5139 18.9356 88.2446 21.001C89.7219 21.8183 91.2673 22.4996 92.8473 23.049C95.2766 23.385 97.6646 23.5223 99.8859 23.5223C102.734 23.5223 105.673 23.037 108.538 22.0876C112.569 19.9463 116.141 16.805 118.719 12.9156C119.171 12.2356 119.706 11.2876 120.235 10.2423C120.759 9.20898 121.278 8.08232 121.703 7.02898C121.771 6.86098 121.962 6.77965 122.13 6.84765C122.298 6.91432 122.379 7.10498 122.311 7.27298C121.878 8.34898 121.351 9.49298 120.822 10.5383C120.279 11.6063 119.731 12.5783 119.267 13.2783C117.353 16.1663 114.903 18.6503 112.127 20.633C112.629 20.3916 113.126 20.1343 113.617 19.8636C116.947 18.0223 120.011 15.5063 122.499 12.361C122.633 11.733 122.751 11.0916 122.853 10.4436C123.238 7.99698 123.395 5.46098 123.33 3.21965C123.325 3.03965 123.467 2.88765 123.647 2.88365C123.829 2.87832 123.979 3.02098 123.985 3.20098C124.051 5.48098 123.891 8.05832 123.501 10.545C123.467 10.7503 123.434 10.9556 123.398 11.1596C123.633 10.829 123.862 10.4916 124.083 10.1476C124.297 9.81698 125.023 8.66632 125.71 7.32232C126.105 6.55165 126.489 5.70898 126.758 4.91698C126.817 4.74498 127.003 4.65298 127.174 4.71032C127.346 4.76898 127.438 4.95565 127.381 5.12632C127.101 5.94632 126.702 6.81965 126.293 7.62098C125.586 9.00365 124.851 10.1676 124.635 10.501C124.155 11.2463 123.645 11.9623 123.107 12.649C122.774 14.177 122.347 15.625 121.825 16.8956C121.622 17.389 121.401 17.873 121.162 18.3476C122.199 17.3183 123.154 16.153 124.003 14.8423C124.423 14.1943 124.822 13.5023 125.195 12.769C125.558 12.0556 125.895 11.3063 126.201 10.5237C126.354 10.129 127.066 8.16232 127.667 6.28098C128.017 5.18765 128.331 4.11832 128.481 3.39565C128.515 3.21832 128.689 3.10365 128.866 3.13965C129.043 3.17565 129.158 3.34898 129.122 3.52632C128.969 4.27032 128.647 5.36365 128.291 6.47832C127.678 8.39565 126.965 10.3703 126.811 10.7623C126.497 11.5703 126.151 12.3396 125.781 13.0676C125.403 13.8103 124.993 14.521 124.553 15.1996C123.285 17.1556 121.793 18.797 120.134 20.1543C119.83 20.6343 119.507 21.0996 119.166 21.553C121.498 20.089 123.614 18.381 125.426 16.453C126.154 15.6796 126.83 14.8596 127.455 14.0036C127.795 13.1183 128.053 12.2836 128.257 11.437C128.607 9.98898 128.809 8.49165 129.014 6.63832C129.034 6.45832 129.197 6.32765 129.377 6.34765C129.557 6.36765 129.686 6.52898 129.667 6.70898C129.458 8.58498 129.254 10.1036 128.894 11.5916C128.863 11.7196 128.831 11.8476 128.798 11.9756C128.897 11.8103 128.994 11.6436 129.09 11.4756C130.147 9.62232 130.993 7.64498 131.618 5.60498C131.67 5.43165 131.853 5.33432 132.026 5.38632C132.199 5.43832 132.297 5.62232 132.245 5.79432C131.605 7.88232 130.741 9.90498 129.659 11.7996C129.163 12.669 128.622 13.5103 128.035 14.321C127.795 14.937 127.517 15.577 127.189 16.261C123.666 23.6116 116.582 29.1036 108.469 31.925C105.93 32.809 103.29 33.4303 100.626 33.7663C104.373 34.089 108.01 33.865 111.307 33.073C111.905 32.9303 112.493 32.7663 113.073 32.581C115.918 31.129 118.495 29.2636 120.803 27.0676C126.838 21.3223 131.035 13.3103 133.349 4.48498C133.394 4.31032 133.573 4.20498 133.747 4.25032C133.922 4.29565 134.027 4.47432 133.982 4.65032C131.639 13.589 127.382 21.7103 121.255 27.5423C119.991 28.745 118.649 29.8503 117.229 30.845C119.219 29.805 121.083 28.5196 122.799 27.0396C126.373 23.957 129.302 20.0303 131.394 15.7316C132.185 14.109 132.786 12.573 133.283 11.0103C133.779 9.44765 134.179 7.83698 134.563 6.07165C134.601 5.89432 134.777 5.78232 134.954 5.81965C135.13 5.85832 135.243 6.03298 135.205 6.21032C134.821 7.97832 134.417 9.60498 133.906 11.209C133.397 12.813 132.783 14.3796 131.985 16.0196C129.855 20.393 126.871 24.393 123.227 27.537C120.319 30.045 116.989 32.0103 113.335 33.185C109.477 35.1476 105.138 36.3676 100.323 36.6476C93.0006 37.0743 85.5913 35.029 79.2686 30.8903C73.2286 26.9383 68.1779 21.073 65.1406 13.6276C64.7699 12.7196 64.4553 11.861 64.1753 10.9836C63.8953 10.1103 63.6566 9.23165 63.4379 8.27698C63.3979 8.10098 63.5073 7.92498 63.6846 7.88365C63.8606 7.84365 64.0366 7.95432 64.0766 8.13032C64.2939 9.07698 64.5286 9.93965 64.7979 10.785C65.0673 11.6276 65.3779 12.4703 65.7486 13.381C68.7339 20.6956 73.6953 26.4583 79.6286 30.341C85.8353 34.4036 93.1059 36.4103 100.287 35.993C103.633 35.7996 106.743 35.141 109.619 34.089C105.822 34.7436 101.665 34.717 97.4526 34.0303C96.7393 34.0583 96.0259 34.0663 95.3153 34.0516C90.8819 33.9623 86.5246 33.0343 82.6006 31.1543C76.9486 28.445 72.2006 23.7636 69.4246 16.7716C68.8006 15.8463 68.2179 14.8876 67.6806 13.893C67.0326 12.6956 66.3086 11.1516 65.6633 9.59698C65.0513 8.12098 64.5059 6.62898 64.1593 5.40632ZM86.2473 30.6343C80.5859 28.0703 75.3339 24.2743 71.3073 19.313C74.0833 24.6183 78.1606 28.2996 82.8833 30.5636C86.3633 32.2303 90.1953 33.1316 94.1179 33.3516C91.4593 32.7023 88.8113 31.7943 86.2473 30.6343V30.6343ZM96.4739 24.073C98.0299 24.4156 99.5979 24.6423 101.15 24.757C101.613 24.6636 102.073 24.557 102.531 24.437C103.322 24.2316 104.107 23.9876 104.881 23.709C103.207 24.021 101.531 24.181 99.8859 24.181C98.7846 24.181 97.6419 24.1476 96.4739 24.073V24.073ZM101.833 25.4583C101.621 25.4463 101.406 25.433 101.193 25.417C95.3553 26.5863 89.2659 25.773 84.1179 22.4116C83.2606 21.853 82.4593 21.237 81.7099 20.5703C80.3513 19.9343 79.0419 19.197 77.8046 18.3463C78.4046 19.2103 79.0233 20.0223 79.6499 20.7676C81.0206 22.3983 82.4779 23.805 83.9979 24.9983C87.5766 26.5316 91.4993 27.3716 95.5113 27.585C102.761 27.9703 110.301 26.313 116.634 23.005C116.934 22.849 117.23 22.689 117.525 22.525C117.851 22.157 118.166 21.7783 118.467 21.389C117.434 22.0796 116.35 22.6743 115.226 23.181C111.098 25.0423 106.441 25.701 101.833 25.4583ZM98.6553 25.1383C96.6579 24.8436 94.6566 24.365 92.7073 23.693C89.7886 23.285 86.8099 22.5956 83.9739 21.525C84.1393 21.6396 84.3059 21.753 84.4753 21.8623C88.7659 24.665 93.7393 25.6396 98.6553 25.1383V25.1383ZM103.493 24.8503C107.462 24.869 111.413 24.181 114.957 22.5823C116.619 21.833 118.193 20.8836 119.638 19.713C120.247 18.7423 120.778 17.7183 121.218 16.6463C121.577 15.7743 121.89 14.8143 122.157 13.801C119.779 16.5396 116.963 18.7636 113.931 20.4396C112.27 21.3583 110.542 22.113 108.785 22.697C107.087 23.5943 105.31 24.3183 103.493 24.8503V24.8503ZM95.4766 28.2396C92.2606 28.069 89.0993 27.5023 86.1179 26.5063C87.4299 27.345 88.7766 28.041 90.1446 28.6023C94.5726 30.421 99.2153 30.8276 103.562 30.0983C107.91 29.369 111.961 27.5023 115.207 24.7756C115.49 24.537 115.767 24.2916 116.038 24.041C109.795 27.0983 102.502 28.6143 95.4766 28.2396" fill="#374452"/>
</svg>
